<svg width="1200" height="630" viewBox="0 0 1200 630" fill="none" xmlns="http://www.w3.org/2000/svg">
  <!-- Background gradient -->
  <rect width="1200" height="630" fill="url(#bg-gradient)"/>
  
  <!-- Pattern overlay -->
  <rect width="1200" height="630" fill="url(#pattern)" opacity="0.1"/>
  
  <!-- Logo area -->
  <g transform="translate(80, 220)">
    <!-- Logo icon -->
    <circle cx="50" cy="50" r="50" fill="#f59e0b"/>
    <path d="M50 25 L65 45 L50 40 L35 45 Z" fill="white"/>
    <circle cx="50" cy="55" r="15" fill="white"/>
    
    <!-- Logo text -->
    <text x="120" y="45" font-family="Arial, sans-serif" font-size="48" font-weight="bold" fill="#1f2937">
      Essencial<tspan fill="#f59e0b">Pet</tspan>
    </text>
    <text x="120" y="80" font-family="Arial, sans-serif" font-size="18" fill="#f59e0b" letter-spacing="4">
      PÓS-VENDA INTELIGENTE
    </text>
  </g>
  
  <!-- Main headline -->
  <text x="80" y="380" font-family="Arial, sans-serif" font-size="42" font-weight="bold" fill="#1f2937">
    Sistema de pós-venda que aumenta
  </text>
  <text x="80" y="440" font-family="Arial, sans-serif" font-size="42" font-weight="bold" fill="#1f2937">
    suas vendas em até <tspan fill="#f59e0b">40%</tspan>
  </text>
  
  <!-- Subheadline -->
  <text x="80" y="500" font-family="Arial, sans-serif" font-size="24" fill="#6b7280">
    Lembretes automáticos de recompra via WhatsApp
  </text>
  
  <!-- CTA badge -->
  <rect x="80" y="540" width="200" height="50" rx="25" fill="#f59e0b"/>
  <text x="180" y="573" font-family="Arial, sans-serif" font-size="18" font-weight="bold" fill="white" text-anchor="middle">
    Teste grátis 3 dias
  </text>
  
  <!-- Phone mockup on right -->
  <g transform="translate(800, 120)">
    <rect x="0" y="0" width="280" height="500" rx="30" fill="#1f2937"/>
    <rect x="10" y="40" width="260" height="420" rx="5" fill="white"/>
    
    <!-- WhatsApp message mockup -->
    <rect x="30" y="80" width="180" height="60" rx="10" fill="#dcf8c6"/>
    <text x="45" y="105" font-family="Arial, sans-serif" font-size="12" fill="#1f2937">
      🐕 Hora da Bravecto do Rex!
    </text>
    <text x="45" y="125" font-family="Arial, sans-serif" font-size="11" fill="#6b7280">
      Lembrete automático
    </text>
    
    <rect x="30" y="160" width="200" height="60" rx="10" fill="#dcf8c6"/>
    <text x="45" y="185" font-family="Arial, sans-serif" font-size="12" fill="#1f2937">
      🛒 Ração do Toby acabando!
    </text>
    <text x="45" y="205" font-family="Arial, sans-serif" font-size="11" fill="#6b7280">
      Recompra programada
    </text>
    
    <!-- Stats -->
    <rect x="30" y="260" width="220" height="80" rx="10" fill="#fef3c7"/>
    <text x="140" y="295" font-family="Arial, sans-serif" font-size="28" font-weight="bold" fill="#f59e0b" text-anchor="middle">
      +523
    </text>
    <text x="140" y="325" font-family="Arial, sans-serif" font-size="14" fill="#1f2937" text-anchor="middle">
      Pet shops usando
    </text>
  </g>
  
  <!-- Definitions -->
  <defs>
    <linearGradient id="bg-gradient" x1="0" y1="0" x2="1200" y2="630">
      <stop offset="0%" stop-color="#ffffff"/>
      <stop offset="100%" stop-color="#fef3c7"/>
    </linearGradient>
    <pattern id="pattern" patternUnits="userSpaceOnUse" width="40" height="40">
      <circle cx="20" cy="20" r="1" fill="#f59e0b"/>
    </pattern>
  </defs>
</svg>
